<svg xmlns="http://www.w3.org/2000/svg" width="15" height="15" viewBox="0 0 15 15">
  <g id="Group_15484" data-name="Group 15484" transform="translate(-65 -464)">
    <g id="Group_10756" data-name="Group 10756" transform="translate(65 464)">
      <path id="Subtraction_1" data-name="Subtraction 1" d="M.327,12.044a.322.322,0,0,1-.195-.068A.362.362,0,0,1,.013,11.6l.83-2.735A5.99,5.99,0,0,1,0,5.795,5.693,5.693,0,0,1,5.572,0a5.692,5.692,0,0,1,5.571,5.795,5.693,5.693,0,0,1-5.571,5.8A5.426,5.426,0,0,1,2.446,10.6L.512,11.986A.3.3,0,0,1,.327,12.044ZM5.52,8.727a.714.714,0,1,0,.7.714A.7.7,0,0,0,5.52,8.727Zm.144-5.688a1.1,1.1,0,0,1,1.192,1.1c0,.539-.229.874-.874,1.279a1.791,1.791,0,0,0-1.021,1.61v.127c0,.4.214.647.558.647.319,0,.5-.2.533-.587.026-.557.226-.836.893-1.245A2.1,2.1,0,0,0,5.712,2.022a2.246,2.246,0,0,0-2.2,1.228,1.482,1.482,0,0,0-.144.647.482.482,0,0,0,.517.542c.28,0,.436-.135.537-.465A1.188,1.188,0,0,1,5.664,3.039Z" transform="translate(0 2.955)" fill="#fbab2d"/>
      <path id="Path_21380" data-name="Path 21380" d="M12.563,12.056a.324.324,0,0,1-.2.068.3.3,0,0,1-.184-.059l-1.936-1.386-.022.014a6.642,6.642,0,0,0,.5-2.545A6.362,6.362,0,0,0,4.5,1.67a5.905,5.905,0,0,0-1.368.159A5.408,5.408,0,0,1,7.123.079a5.693,5.693,0,0,1,5.571,5.8,5.972,5.972,0,0,1-.843,3.068l.83,2.736a.359.359,0,0,1-.118.377Z" transform="translate(1.07 0.602)" fill="#fbab2d"/>
      <rect id="Rectangle_4714" data-name="Rectangle 4714" width="14.421" height="15" transform="translate(0.579)" fill="none"/>
    </g>
  </g>
</svg>
